<svg width="96" height="32" viewBox="0 0 96 32" fill="none" xmlns="http://www.w3.org/2000/svg">
<path d="M18.4111 2.41211C25.9156 2.41211 31.9998 8.49558 32 16L31.9951 16.3516C31.8087 23.6937 25.7982 29.5889 18.4111 29.5889L18.0605 29.584C14.5353 29.4946 11.3442 28.0617 8.97852 25.7793H2C0.895447 25.7793 2.47958e-05 24.8838 0 23.7793V13.5C0.000232072 12.3956 0.895574 11.5 2 11.5H5.58691C7.44397 6.20724 12.484 2.41235 18.4111 2.41211ZM7.13574 14.3867C6.39323 14.3867 5.72444 14.5507 5.12988 14.8789C4.53539 15.2071 4.06264 15.6872 3.71289 16.3193C3.3659 16.9515 3.19246 17.7227 3.19238 18.6318C3.19238 19.5383 3.366 20.3083 3.71289 20.9404C4.0626 21.5699 4.53541 22.0499 5.12988 22.3809C5.72449 22.7118 6.39316 22.8779 7.13574 22.8779C7.87558 22.8779 8.54313 22.714 9.1377 22.3857C9.73487 22.0575 10.2079 21.5765 10.5576 20.9443C10.9073 20.3121 11.083 19.5411 11.083 18.6318C11.0829 17.7227 10.9073 16.9515 10.5576 16.3193C10.2079 15.6875 9.73464 15.207 9.1377 14.8789C8.54317 14.5508 7.8755 14.3867 7.13574 14.3867ZM7.13574 16.1377C7.53374 16.1377 7.87384 16.2339 8.15625 16.4248C8.44129 16.6157 8.65989 16.8966 8.81055 17.2676C8.96385 17.6387 9.03998 18.094 9.04004 18.6318C9.04004 19.1697 8.96379 19.6249 8.81055 19.9961C8.65991 20.3673 8.44135 20.6488 8.15625 20.8398C7.87386 21.0307 7.53369 21.126 7.13574 21.126C6.74023 21.126 6.39945 21.0309 6.11426 20.8398C5.82922 20.6488 5.61034 20.3672 5.45703 19.9961C5.30646 19.6249 5.23047 19.1698 5.23047 18.6318C5.23052 18.094 5.30642 17.6387 5.45703 17.2676C5.61031 16.8968 5.82944 16.6157 6.11426 16.4248C6.39941 16.2339 6.74033 16.1377 7.13574 16.1377ZM12.2793 11.5C13.3837 11.5 14.2791 12.3956 14.2793 13.5V23.7793C14.2793 24.2402 14.1214 24.6637 13.8594 25.002C15.2272 25.6951 16.7729 26.0888 18.4111 26.0889C23.9826 26.0889 28.4998 21.5714 28.5 16C28.4998 10.4286 23.9826 5.91211 18.4111 5.91211C14.4572 5.91232 11.0368 8.18778 9.38281 11.5H12.2793Z" fill="black"/>
<path d="M52.3263 12.4545C52.3263 13.8821 52.0557 15.0966 51.5145 16.098C50.9776 17.0994 50.2446 17.8643 49.3157 18.3928C48.3909 18.9169 47.3512 19.179 46.1963 19.179C45.033 19.179 43.9889 18.9148 43.0642 18.3864C42.1395 17.858 41.4087 17.093 40.8718 16.0916C40.3348 15.0902 40.0664 13.8778 40.0664 12.4545C40.0664 11.027 40.3348 9.8125 40.8718 8.81108C41.4087 7.80966 42.1395 7.04687 43.0642 6.52273C43.9889 5.99432 45.033 5.73011 46.1963 5.73011C47.3512 5.73011 48.3909 5.99432 49.3157 6.52273C50.2446 7.04687 50.9776 7.80966 51.5145 8.81108C52.0557 9.8125 52.3263 11.027 52.3263 12.4545ZM49.5202 12.4545C49.5202 11.5298 49.3817 10.75 49.1047 10.1151C48.832 9.48011 48.4463 8.99858 47.9478 8.67045C47.4492 8.34233 46.8654 8.17827 46.1963 8.17827C45.5273 8.17827 44.9435 8.34233 44.4449 8.67045C43.9463 8.99858 43.5585 9.48011 43.2816 10.1151C43.0088 10.75 42.8725 11.5298 42.8725 12.4545C42.8725 13.3793 43.0088 14.1591 43.2816 14.794C43.5585 15.429 43.9463 15.9105 44.4449 16.2386C44.9435 16.5668 45.5273 16.7308 46.1963 16.7308C46.8654 16.7308 47.4492 16.5668 47.9478 16.2386C48.4463 15.9105 48.832 15.429 49.1047 14.794C49.3817 14.1591 49.5202 13.3793 49.5202 12.4545ZM59.6052 9.18182V11.2273H53.5456V9.18182H59.6052ZM54.9327 19V8.4723C54.9327 7.76065 55.0712 7.17045 55.3481 6.7017C55.6294 6.23295 56.0129 5.88139 56.4987 5.64702C56.9845 5.41264 57.5364 5.29545 58.1543 5.29545C58.5719 5.29545 58.9533 5.32741 59.2984 5.39134C59.6479 5.45526 59.9078 5.51278 60.0783 5.56392L59.5925 7.60938C59.4859 7.57528 59.3538 7.54332 59.1962 7.51349C59.0427 7.48366 58.8851 7.46875 58.7231 7.46875C58.3226 7.46875 58.0435 7.5625 57.8858 7.75C57.7281 7.93324 57.6493 8.19105 57.6493 8.52344V19H54.9327ZM66.5486 9.18182V11.2273H60.4889V9.18182H66.5486ZM61.876 19V8.4723C61.876 7.76065 62.0145 7.17045 62.2915 6.7017C62.5728 6.23295 62.9563 5.88139 63.4421 5.64702C63.9279 5.41264 64.4797 5.29545 65.0976 5.29545C65.5152 5.29545 65.8966 5.32741 66.2418 5.39134C66.5912 5.45526 66.8512 5.51278 67.0216 5.56392L66.5358 7.60938C66.4293 7.57528 66.2972 7.54332 66.1395 7.51349C65.9861 7.48366 65.8284 7.46875 65.6665 7.46875C65.2659 7.46875 64.9868 7.5625 64.8291 7.75C64.6715 7.93324 64.5926 8.19105 64.5926 8.52344V19H61.876ZM68.2121 19V9.18182H70.9351V19H68.2121ZM69.58 7.91619C69.1752 7.91619 68.8279 7.78196 68.5381 7.51349C68.2526 7.24077 68.1099 6.91477 68.1099 6.53551C68.1099 6.16051 68.2526 5.83878 68.5381 5.57031C68.8279 5.29758 69.1752 5.16122 69.58 5.16122C69.9849 5.16122 70.33 5.29758 70.6155 5.57031C70.9053 5.83878 71.0502 6.16051 71.0502 6.53551C71.0502 6.91477 70.9053 7.24077 70.6155 7.51349C70.33 7.78196 69.9849 7.91619 69.58 7.91619ZM77.5525 19.1918C76.5468 19.1918 75.6818 18.9787 74.9573 18.5526C74.2372 18.1222 73.6832 17.5256 73.2954 16.7628C72.9119 16 72.7201 15.1222 72.7201 14.1293C72.7201 13.1236 72.914 12.2415 73.3018 11.483C73.6938 10.7202 74.25 10.1257 74.9701 9.69957C75.6903 9.26918 76.5468 9.05398 77.5397 9.05398C78.3963 9.05398 79.1463 9.20952 79.7897 9.5206C80.4332 9.83168 80.9424 10.2685 81.3174 10.831C81.6924 11.3935 81.8991 12.054 81.9375 12.8125H79.3679C79.2954 12.3224 79.1036 11.9283 78.7926 11.63C78.4858 11.3274 78.0831 11.1761 77.5845 11.1761C77.1626 11.1761 76.794 11.2912 76.4786 11.5213C76.1676 11.7472 75.9247 12.0774 75.75 12.5121C75.5752 12.9467 75.4879 13.473 75.4879 14.0909C75.4879 14.7173 75.5731 15.25 75.7436 15.6889C75.9183 16.1278 76.1633 16.4624 76.4786 16.6925C76.794 16.9226 77.1626 17.0376 77.5845 17.0376C77.8956 17.0376 78.1747 16.9737 78.4218 16.8459C78.6733 16.718 78.8799 16.5327 79.0419 16.2898C79.2081 16.0426 79.3167 15.7464 79.3679 15.4013H81.9375C81.8948 16.1513 81.6903 16.8118 81.3238 17.3828C80.9616 17.9496 80.4609 18.3928 79.8217 18.7124C79.1825 19.032 78.4261 19.1918 77.5525 19.1918ZM88.1553 19.1918C87.1454 19.1918 86.2761 18.9872 85.5474 18.5781C84.8229 18.1648 84.2647 17.581 83.8726 16.8267C83.4806 16.0682 83.2846 15.1712 83.2846 14.1357C83.2846 13.1257 83.4806 12.2393 83.8726 11.4766C84.2647 10.7138 84.8165 10.1193 85.5282 9.69318C86.2441 9.26705 87.0836 9.05398 88.0467 9.05398C88.6944 9.05398 89.2974 9.15838 89.8556 9.36719C90.4181 9.57173 90.9082 9.88068 91.3258 10.294C91.7476 10.7074 92.0758 11.2273 92.3101 11.8537C92.5445 12.4759 92.6617 13.2045 92.6617 14.0398V14.7876H84.3712V13.1001H90.0985C90.0985 12.7081 90.0133 12.3608 89.8428 12.0582C89.6724 11.7557 89.4359 11.5192 89.1333 11.3487C88.835 11.174 88.4877 11.0866 88.0914 11.0866C87.678 11.0866 87.3116 11.1825 86.992 11.3743C86.6766 11.5618 86.4295 11.8153 86.2505 12.1349C86.0715 12.4503 85.9799 12.8018 85.9756 13.1896V14.794C85.9756 15.2798 86.0651 15.6996 86.2441 16.0533C86.4273 16.407 86.6851 16.6797 87.0175 16.8714C87.3499 17.0632 87.7441 17.1591 88.2001 17.1591C88.5026 17.1591 88.7796 17.1165 89.031 17.0312C89.2824 16.946 89.4976 16.8182 89.6766 16.6477C89.8556 16.4773 89.992 16.2685 90.0857 16.0213L92.6042 16.1875C92.4763 16.7926 92.2143 17.321 91.818 17.7727C91.4259 18.2202 90.9188 18.5696 90.2967 18.821C89.6788 19.0682 88.965 19.1918 88.1553 19.1918Z" fill="black"/>
<path d="M40.4633 28.7651V22.9469H41.4917V25.123H41.5343C41.5873 25.017 41.6621 24.9043 41.7587 24.785C41.8553 24.6637 41.986 24.5605 42.1508 24.4753C42.3155 24.3882 42.5258 24.3446 42.7814 24.3446C43.1186 24.3446 43.4225 24.4308 43.6934 24.6031C43.9661 24.7736 44.182 25.0264 44.3411 25.3617C44.5021 25.695 44.5826 26.1041 44.5826 26.5889C44.5826 27.0681 44.504 27.4753 44.3468 27.8105C44.1896 28.1458 43.9756 28.4014 43.7047 28.5776C43.4339 28.7537 43.1271 28.8418 42.7843 28.8418C42.5343 28.8418 42.3269 28.8001 42.1621 28.7168C41.9974 28.6334 41.8648 28.5331 41.7644 28.4156C41.6659 28.2963 41.5892 28.1836 41.5343 28.0776H41.4746V28.7651H40.4633ZM41.4718 26.5833C41.4718 26.8655 41.5116 27.1126 41.5911 27.3247C41.6725 27.5369 41.789 27.7026 41.9405 27.8219C42.0939 27.9393 42.2796 27.998 42.4974 27.998C42.7246 27.998 42.915 27.9374 43.0684 27.8162C43.2218 27.6931 43.3373 27.5255 43.415 27.3134C43.4945 27.0994 43.5343 26.856 43.5343 26.5833C43.5343 26.3124 43.4955 26.0719 43.4178 25.8617C43.3402 25.6514 43.2246 25.4867 43.0712 25.3673C42.9178 25.248 42.7265 25.1884 42.4974 25.1884C42.2777 25.1884 42.0911 25.2461 41.9377 25.3617C41.7843 25.4772 41.6678 25.6391 41.5883 25.8475C41.5106 26.0558 41.4718 26.3011 41.4718 26.5833ZM46.1876 30.4014C46.0475 30.4014 45.9178 30.3901 45.7984 30.3673C45.681 30.3465 45.5873 30.3219 45.5172 30.2935L45.7558 29.4923C45.9054 29.5359 46.039 29.5567 46.1564 29.5548C46.2738 29.553 46.377 29.516 46.4661 29.4441C46.557 29.374 46.6337 29.2566 46.6962 29.0918L46.7842 28.856L45.2018 24.4014H46.2928L47.2984 27.6969H47.3439L48.3524 24.4014H49.4462L47.699 29.2935C47.6176 29.5245 47.5096 29.7225 47.3751 29.8872C47.2407 30.0539 47.0759 30.1808 46.8808 30.2679C46.6876 30.3569 46.4566 30.4014 46.1876 30.4014ZM52.5597 28.7651V28.1088L55.5426 23.8304H52.5426V22.9469H56.8495V23.6031L53.8693 27.8816H56.8665V28.7651H52.5597ZM59.1804 22.9469V28.7651H58.1264V22.9469H59.1804ZM60.4538 28.7651V28.1088L63.4367 23.8304H60.4367V22.9469H64.7435V23.6031L61.7634 27.8816H64.7606V28.7651H60.4538ZM67.0744 22.9469V28.7651H66.0205V22.9469H67.0744ZM68.058 22.9469H69.2484L70.6717 25.5208H70.7285L72.1518 22.9469H73.3421L71.2257 26.5946V28.7651H70.1745V26.5946L68.058 22.9469ZM75.3826 22.9469V28.7651H74.3286V22.9469H75.3826Z" fill="black"/>
</svg>
