<svg width="200" height="120" viewBox="0 0 200 120" fill="none" xmlns="http://www.w3.org/2000/svg" preserveAspectRatio="none">
  <rect width="200" height="120" fill="#F2F2F2"/>
  <!-- Top Bar -->
  <rect width="200" height="12" fill="white"/>
  <rect x="85" y="4" width="30" height="4" rx="2" fill="#E5E5E5"/>
  <circle cx="190" cy="6" r="3" fill="#757575"/>
  <!-- Toolbar/Ribbon -->
  <rect y="12" width="200" height="24" fill="white"/>
  <rect x="10" y="20" width="180" height="12" rx="3" fill="#F8F9FA" stroke="#E5E5E5" stroke-width="0.5"/>
  <rect x="15" y="24" width="15" height="4" rx="1" fill="#D1D1D1"/>
  <rect x="35" y="24" width="25" height="4" rx="1" fill="#D1D1D1"/>
  <rect x="65" y="24" width="10" height="4" rx="1" fill="#D1D1D1"/>
  <!-- Sidebars & Ruler -->
  <rect y="36" width="12" height="76" fill="#F2F2F2"/>
  <rect x="3" y="42" width="6" height="6" rx="1.5" fill="#AAAAAA"/>
  <rect x="3" y="52" width="6" height="6" rx="1.5" fill="#AAAAAA"/>
  <rect x="12" y="36" width="188" height="6" fill="white" stroke="#E5E5E5" stroke-width="0.5"/>
  <!-- Workspace & Document -->
  <rect x="12" y="42" width="188" height="70" fill="#E0E0E0"/>
  <rect x="35" y="48" width="140" height="64" fill="white" rx="1"/>
  <rect x="45" y="58" width="60" height="2" rx="1" fill="#F0F0F0"/>
  <rect x="45" y="64" width="100" height="2" rx="1" fill="#F0F0F0"/>
  <rect x="45" y="70" width="80" height="2" rx="1" fill="#F0F0F0"/>
  <!-- Status Bar -->
  <rect y="112" width="200" height="8" fill="#F8F9FA" stroke="#E5E5E5" stroke-width="0.5"/>
</svg>
