<svg width="200" height="120" viewBox="0 0 200 120" fill="none" xmlns="http://www.w3.org/2000/svg" preserveAspectRatio="none">
  <rect width="200" height="120" fill="#1C1C1C"/>
  <!-- Top Bar -->
  <rect width="200" height="12" fill="#252525"/>
  <rect x="85" y="4" width="30" height="3" rx="1.5" fill="#555555"/>
  <circle cx="190" cy="6" r="3" fill="#4A4A4A"/>
  <!-- Toolbar/Ribbon -->
  <rect y="12" width="200" height="24" fill="#333333"/>
  <rect x="8" y="16" width="184" height="16" rx="4" fill="#3D3D3D" stroke="#4A4A4A" stroke-width="0.5"/>
  <rect x="14" y="21" width="12" height="6" rx="1" fill="#666666"/>
  <rect x="30" y="21" width="20" height="6" rx="1" fill="#666666"/>
  <rect x="140" y="20" width="20" height="8" rx="1" fill="white"/> <!-- Style box -->
  <rect x="165" y="20" width="20" height="8" rx="1" fill="#4A4A4A"/>
  <!-- Sidebars & Ruler -->
  <rect y="36" width="12" height="76" fill="#252525"/>
  <rect x="3" y="42" width="6" height="6" rx="1.5" fill="#777777"/>
  <rect x="3" y="52" width="6" height="6" rx="1.5" fill="#777777"/>
  <rect x="12" y="36" width="188" height="6" fill="#333333" stroke="#4A4A4A" stroke-width="0.5"/>
  <!-- Workspace & Document -->
  <rect x="12" y="42" width="188" height="70" fill="#1C1C1C"/>
  <rect x="35" y="48" width="140" height="64" fill="white" rx="1"/> <!-- Document remains white -->
  <rect x="45" y="58" width="60" height="2" rx="1" fill="#F0F0F0"/>
  <rect x="45" y="64" width="100" height="2" rx="1" fill="#F0F0F0"/>
  <!-- Status Bar -->
  <rect y="112" width="200" height="8" fill="#2D2D2D" stroke="#4A4A4A" stroke-width="0.5"/>
</svg>
